<svg width="802" height="458" viewBox="0 0 802 458" fill="none" xmlns="http://www.w3.org/2000/svg">
<path d="M0.972064 141.922L3.65625 144.606L6.34044 141.922L3.65625 139.238L0.972064 141.922ZM487.717 218.317V217.852H261.081V218.317V218.782H487.717V218.317ZM184.685 141.922V141.457H3.65625V141.922V142.387H184.685V141.922ZM222.883 180.12H223.348C223.348 158.767 206.038 141.457 184.685 141.457V141.922V142.387C205.524 142.387 222.418 159.28 222.418 180.12H222.883ZM261.081 218.317V217.852C240.241 217.852 223.348 200.959 223.348 180.12H222.883H222.418C222.418 201.472 239.728 218.782 261.081 218.782V218.317Z" fill="#2E6CAB"/>
<path d="M0.972064 294.563L3.65625 291.879L6.34044 294.563L3.65625 297.247L0.972064 294.563ZM487.717 218.168V218.633H260.036V218.168V217.703H487.717V218.168ZM183.641 294.563V295.028H3.65625V294.563V294.098H183.641V294.563ZM221.838 256.366H222.303C222.303 277.718 204.994 295.028 183.641 295.028V294.563V294.098C204.48 294.098 221.374 277.205 221.374 256.366H221.838ZM260.036 218.168V218.633C239.197 218.633 222.303 235.526 222.303 256.366H221.838H221.374C221.374 235.013 238.683 217.703 260.036 217.703V218.168Z" fill="#2E6CAB"/>
<path d="M236.267 448.656L240.475 452.864L236.267 457.072L232.059 452.864L236.267 448.656Z" fill="#2E6CAB"/>
<path d="M119.469 290.355L123.677 294.564L119.469 298.772L115.261 294.564L119.469 290.355Z" fill="#2E6CAB"/>
<path d="M149.766 137.714L153.974 141.922L149.766 146.13L145.558 141.922L149.766 137.714Z" fill="#2E6CAB"/>
<path d="M249.896 0.317383L254.104 4.52556L249.896 8.73375L245.688 4.52556L249.896 0.317383Z" fill="#2E6CAB"/>
<path d="M0.972064 4.52551L3.65625 7.2097L6.34044 4.52551L3.65625 1.84133L0.972064 4.52551ZM487.368 219.101V218.636H389.469V219.101V219.566H487.368V219.101ZM342.978 172.609H343.443V51.017H342.978H342.513V172.609H342.978ZM296.486 4.52551V4.0606H3.65625V4.52551V4.99043H296.486V4.52551ZM342.978 51.017H343.443C343.443 25.0837 322.419 4.0606 296.486 4.0606V4.52551V4.99043C321.906 4.99043 342.513 25.5973 342.513 51.017H342.978ZM389.469 219.101V218.636C364.049 218.636 343.443 198.029 343.443 172.609H342.978H342.513C342.513 198.543 363.536 219.566 389.469 219.566V219.101Z" fill="#2E6CAB"/>
<path d="M0.972064 452.864L3.65625 455.548L6.34044 452.864L3.65625 450.18L0.972064 452.864ZM342.427 406.372H341.962H342.427ZM477.605 218.32V217.856H388.916V218.32V218.785H477.605V218.32ZM342.424 264.813L341.96 264.813L341.962 406.372H342.427L342.892 406.371L342.889 264.813L342.424 264.813ZM295.936 452.864V452.399H3.65625V452.864V453.329H295.936V452.864ZM342.427 406.372H341.962C341.963 431.792 321.356 452.399 295.936 452.399V452.864V453.329C321.869 453.329 342.893 432.305 342.892 406.371L342.427 406.372ZM388.916 218.32V217.856C362.982 217.856 341.959 238.879 341.96 264.813L342.424 264.813L342.889 264.813C342.889 239.393 363.496 218.785 388.916 218.785V218.32Z" fill="#2E6CAB"/>
<path d="M445.315 214.113L449.523 218.321L445.315 222.529L441.106 218.321L445.315 214.113Z" fill="#2E6CAB"/>
<g filter="url(#filter0_d_568_864)">
<rect x="550.482" y="137.572" width="189.685" height="183.176" rx="18.1317" stroke="url(#paint0_linear_568_864)" stroke-width="0.929829" shape-rendering="crispEdges"/>
</g>
<rect x="520.727" y="108.747" width="249.194" height="239.896" rx="27.43" stroke="url(#paint1_linear_568_864)" stroke-width="0.929829"/>
<rect x="488.183" y="74.3432" width="313.352" height="308.703" rx="27.43" stroke="url(#paint2_linear_568_864)" stroke-width="0.929829"/>
<g style="mix-blend-mode:plus-lighter" opacity="0.6">
<rect width="73.4565" height="182.247" transform="matrix(-1 0 0 1 650.438 137.107)" fill="url(#paint3_linear_568_864)" fill-opacity="0.7"/>
</g>
<path d="M650.438 138.036V319.353" stroke="url(#paint4_radial_568_864)" stroke-width="0.929829"/>
<g clip-path="url(#clip0_568_864)">
<path d="M667.17 286.285C644.947 278.753 631.557 234.865 651.642 230.96C669.773 227.427 669.959 267.874 692.554 252.718" stroke="url(#paint5_linear_568_864)" stroke-width="1.85966" stroke-linecap="round" stroke-linejoin="round"/>
<path d="M627.744 174.147C633.602 170.428 641.041 168.104 650.432 167.825C658.15 168.011 664.472 169.684 669.772 172.288" stroke="url(#paint6_linear_568_864)" stroke-width="1.85966" stroke-linecap="round" stroke-linejoin="round"/>
<path d="M658.894 288.702C645.504 282.473 630.627 261.83 634.346 239.421C635.741 230.681 642.715 223.707 651.548 222.777C674.608 220.174 674.143 261.551 694.32 242.955" stroke="url(#paint7_linear_568_864)" stroke-width="1.85966" stroke-linecap="round" stroke-linejoin="round"/>
<path d="M649.689 289.539C635.183 280.985 623.003 261.83 627.187 236.353C629.14 224.544 638.624 215.153 650.526 213.758C677.119 210.69 676.189 251.23 694.786 235.702" stroke="url(#paint8_linear_568_864)" stroke-width="1.85966" stroke-linecap="round" stroke-linejoin="round"/>
<path d="M674.7 282.101C661.869 278.381 649.13 257.739 649.781 244.814C649.967 241.281 653.872 239.142 656.94 241.002C667.633 247.418 670.888 271.408 690.228 260.529" stroke="url(#paint9_linear_568_864)" stroke-width="1.85966" stroke-linecap="round" stroke-linejoin="round"/>
<path d="M637.508 287.587C624.118 275.964 616.4 258.855 618.725 237.655C620.585 220.267 634.718 206.413 652.292 205.483C681.117 203.995 678.699 239.701 695.064 228.636" stroke="url(#paint10_linear_568_864)" stroke-width="1.85966" stroke-linecap="round" stroke-linejoin="round"/>
<path d="M616.772 272.338C612.495 262.667 609.147 250.673 611.007 237.748C614.354 215.153 628.767 196.371 652.013 196.371C675.258 196.371 683.069 224.637 694.785 220.732" stroke="url(#paint11_linear_568_864)" stroke-width="1.85966" stroke-linecap="round" stroke-linejoin="round"/>
<path d="M605.894 228.729C607.753 216.92 622.909 182.051 656.662 186.142C677.211 188.653 683.534 206.227 692.926 209.853" stroke="url(#paint12_linear_568_864)" stroke-width="1.85966" stroke-linecap="round" stroke-linejoin="round"/>
<path d="M608.683 203.065C625.048 170.614 669.772 166.709 690.88 198.788" stroke="url(#paint13_linear_568_864)" stroke-width="1.85966" stroke-linecap="round" stroke-linejoin="round"/>
<path d="M658.708 252.718C662.148 259.692 670.238 272.523 683.163 274.011" stroke="url(#paint14_linear_568_864)" stroke-width="1.85966" stroke-linecap="round" stroke-linejoin="round"/>
</g>
<defs>
<filter id="filter0_d_568_864" x="505.385" y="92.4749" width="279.879" height="273.37" filterUnits="userSpaceOnUse" color-interpolation-filters="sRGB">
<feFlood flood-opacity="0" result="BackgroundImageFix"/>
<feColorMatrix in="SourceAlpha" type="matrix" values="0 0 0 0 0 0 0 0 0 0 0 0 0 0 0 0 0 0 127 0" result="hardAlpha"/>
<feMorphology radius="5.57898" operator="dilate" in="SourceAlpha" result="effect1_dropShadow_568_864"/>
<feOffset/>
<feGaussianBlur stdDeviation="19.5264"/>
<feComposite in2="hardAlpha" operator="out"/>
<feColorMatrix type="matrix" values="0 0 0 0 0.0117647 0 0 0 0 0.717647 0 0 0 0 0.992157 0 0 0 0.2 0"/>
<feBlend mode="color-dodge" in2="BackgroundImageFix" result="effect1_dropShadow_568_864"/>
<feBlend mode="normal" in="SourceGraphic" in2="effect1_dropShadow_568_864" result="shape"/>
</filter>
<linearGradient id="paint0_linear_568_864" x1="645.324" y1="321.213" x2="645.324" y2="137.107" gradientUnits="userSpaceOnUse">
<stop stop-color="#8A8EFF" stop-opacity="0.312"/>
<stop offset="0.47" stop-color="#8A8EFF"/>
<stop offset="1" stop-color="#8A8EFF" stop-opacity="0"/>
</linearGradient>
<linearGradient id="paint1_linear_568_864" x1="520.262" y1="228.695" x2="770.386" y2="228.695" gradientUnits="userSpaceOnUse">
<stop offset="0.2" stop-color="#8A8EFF" stop-opacity="0.1"/>
<stop offset="0.47" stop-color="#8A8EFF"/>
<stop offset="0.7" stop-color="#8A8EFF" stop-opacity="0.1"/>
</linearGradient>
<linearGradient id="paint2_linear_568_864" x1="644.859" y1="73.8783" x2="644.859" y2="383.511" gradientUnits="userSpaceOnUse">
<stop offset="0.2" stop-color="#8A8EFF" stop-opacity="0.1"/>
<stop offset="0.47" stop-color="#8A8EFF"/>
<stop offset="0.7" stop-color="#8A8EFF" stop-opacity="0.1"/>
</linearGradient>
<linearGradient id="paint3_linear_568_864" x1="103.259" y1="91.1233" x2="-37.1516" y2="91.1233" gradientUnits="userSpaceOnUse">
<stop offset="0.538753" stop-color="#8A8EFF" stop-opacity="0"/>
<stop offset="0.946852" stop-color="#8A8EFF"/>
</linearGradient>
<radialGradient id="paint4_radial_568_864" cx="0" cy="0" r="1" gradientUnits="userSpaceOnUse" gradientTransform="translate(650.938 228.695) rotate(90) scale(90.6584 3.69538)">
<stop stop-color="#242553"/>
<stop offset="1" stop-color="#8A8EFF"/>
</radialGradient>
<linearGradient id="paint5_linear_568_864" x1="643.552" y1="234.958" x2="681.675" y2="273.267" gradientUnits="userSpaceOnUse">
<stop stop-color="#684CC8"/>
<stop offset="0.3" stop-color="#6876D2"/>
<stop offset="0.4" stop-color="#6888D2"/>
<stop offset="0.7" stop-color="#AA92A4"/>
<stop offset="1" stop-color="#684CD2"/>
</linearGradient>
<linearGradient id="paint6_linear_568_864" x1="638.065" y1="162.525" x2="659.451" y2="183.911" gradientUnits="userSpaceOnUse">
<stop stop-color="#684CC8"/>
<stop offset="0.3" stop-color="#6876D2"/>
<stop offset="0.4" stop-color="#6888D2"/>
<stop offset="0.7" stop-color="#AA92A4"/>
<stop offset="1" stop-color="#684CD2"/>
</linearGradient>
<linearGradient id="paint7_linear_568_864" x1="638.252" y1="228.728" x2="679.164" y2="269.92" gradientUnits="userSpaceOnUse">
<stop stop-color="#684CC8"/>
<stop offset="0.3" stop-color="#6876D2"/>
<stop offset="0.4" stop-color="#6888D2"/>
<stop offset="0.7" stop-color="#AA92A4"/>
<stop offset="1" stop-color="#684CD2"/>
</linearGradient>
<linearGradient id="paint8_linear_568_864" x1="631.836" y1="223.057" x2="674.701" y2="266.108" gradientUnits="userSpaceOnUse">
<stop stop-color="#684CC8"/>
<stop offset="0.3" stop-color="#6876D2"/>
<stop offset="0.4" stop-color="#6888D2"/>
<stop offset="0.7" stop-color="#AA92A4"/>
<stop offset="1" stop-color="#684CD2"/>
</linearGradient>
<linearGradient id="paint9_linear_568_864" x1="650.432" y1="241.188" x2="683.72" y2="274.569" gradientUnits="userSpaceOnUse">
<stop stop-color="#684CC8"/>
<stop offset="0.3" stop-color="#6876D2"/>
<stop offset="0.4" stop-color="#6888D2"/>
<stop offset="0.7" stop-color="#AA92A4"/>
<stop offset="1" stop-color="#684CD2"/>
</linearGradient>
<linearGradient id="paint10_linear_568_864" x1="625.978" y1="217.757" x2="667.355" y2="259.32" gradientUnits="userSpaceOnUse">
<stop stop-color="#684CC8"/>
<stop offset="0.3" stop-color="#6876D2"/>
<stop offset="0.4" stop-color="#6888D2"/>
<stop offset="0.7" stop-color="#AA92A4"/>
<stop offset="1" stop-color="#684CD2"/>
</linearGradient>
<linearGradient id="paint11_linear_568_864" x1="620.398" y1="210.876" x2="663.078" y2="253.834" gradientUnits="userSpaceOnUse">
<stop stop-color="#684CC8"/>
<stop offset="0.3" stop-color="#6876D2"/>
<stop offset="0.4" stop-color="#6888D2"/>
<stop offset="0.7" stop-color="#AA92A4"/>
<stop offset="1" stop-color="#684CD2"/>
</linearGradient>
<linearGradient id="paint12_linear_568_864" x1="624.676" y1="194.418" x2="666.983" y2="236.911" gradientUnits="userSpaceOnUse">
<stop stop-color="#684CC8"/>
<stop offset="0.3" stop-color="#6876D2"/>
<stop offset="0.4" stop-color="#6888D2"/>
<stop offset="0.7" stop-color="#AA92A4"/>
<stop offset="1" stop-color="#684CD2"/>
</linearGradient>
<linearGradient id="paint13_linear_568_864" x1="628.395" y1="178.611" x2="670.33" y2="220.732" gradientUnits="userSpaceOnUse">
<stop stop-color="#684CC8"/>
<stop offset="0.3" stop-color="#6876D2"/>
<stop offset="0.4" stop-color="#6888D2"/>
<stop offset="0.7" stop-color="#AA92A4"/>
<stop offset="1" stop-color="#684CD2"/>
</linearGradient>
<linearGradient id="paint14_linear_568_864" x1="657.778" y1="252.253" x2="681.954" y2="276.522" gradientUnits="userSpaceOnUse">
<stop stop-color="#684CC8"/>
<stop offset="0.3" stop-color="#6876D2"/>
<stop offset="0.4" stop-color="#6888D2"/>
<stop offset="0.7" stop-color="#AA92A4"/>
<stop offset="1" stop-color="#684CD2"/>
</linearGradient>
<clipPath id="clip0_568_864">
<rect width="92.0531" height="124.597" fill="white" transform="translate(604.034 166.523)"/>
</clipPath>
</defs>
</svg>
